<?xml version="1.0" encoding="UTF-8" standalone="no"?>
<!-- Created with Inkscape (http://www.inkscape.org/) -->

<svg
   xmlns:dc="http://purl.org/dc/elements/1.1/"
   xmlns:cc="http://creativecommons.org/ns#"
   xmlns:rdf="http://www.w3.org/1999/02/22-rdf-syntax-ns#"
   xmlns:svg="http://www.w3.org/2000/svg"
   xmlns="http://www.w3.org/2000/svg"
   xmlns:sodipodi="http://sodipodi.sourceforge.net/DTD/sodipodi-0.dtd"
   xmlns:inkscape="http://www.inkscape.org/namespaces/inkscape"
   id="svg2"
   version="1.1"
   inkscape:version="0.91 r13725"
   xml:space="preserve"
   width="679.88104"
   height="167.3775"
   viewBox="0 0 679.88105 167.3775"
   sodipodi:docname="logo-iternova-bw.svg"><metadata
     id="metadata8"><rdf:RDF><cc:Work
         rdf:about=""><dc:format>image/svg+xml</dc:format><dc:type
           rdf:resource="http://purl.org/dc/dcmitype/StillImage" /><dc:title></dc:title></cc:Work></rdf:RDF></metadata><defs
     id="defs6"><clipPath
       clipPathUnits="userSpaceOnUse"
       id="clipPath18"><path
         d="m 0,841.89 595.28,0 L 595.28,0 0,0 0,841.89 Z"
         id="path20"
         inkscape:connector-curvature="0" /></clipPath><clipPath
       clipPathUnits="userSpaceOnUse"
       id="clipPath26"><path
         d="m 42.0723,726.549 131.3707,0 0,-98.302 -131.3707,0 0,98.302 z"
         id="path28"
         inkscape:connector-curvature="0" /></clipPath><clipPath
       clipPathUnits="userSpaceOnUse"
       id="clipPath42"><path
         d="m 33.4419,703.35 150.3851,0 0,-60.124 -150.3851,0 0,60.124 z"
         id="path44"
         inkscape:connector-curvature="0" /></clipPath><clipPath
       clipPathUnits="userSpaceOnUse"
       id="clipPath46"><path
         d="m 89.9,698.038 c 49.068,9.539 91.057,5.881 93.787,-8.168 2.731,-14.05 -34.83,-33.171 -83.897,-42.708 -49.066,-9.538 -63.198,-0.465 -65.929,13.584 -2.731,14.049 6.973,27.755 56.039,37.292"
         id="path48"
         inkscape:connector-curvature="0"
         style="clip-rule:evenodd" /></clipPath><linearGradient
       x1="0"
       y1="0"
       x2="1"
       y2="0"
       gradientUnits="userSpaceOnUse"
       gradientTransform="matrix(203.69714,41.363068,41.363068,-203.69714,17.465332,656.88672)"
       spreadMethod="pad"
       id="linearGradient50"><stop
         style="stop-opacity:1;stop-color:#00539f"
         offset="0"
         id="stop52" /><stop
         style="stop-opacity:1;stop-color:#00539f"
         offset="1"
         id="stop54" /></linearGradient><clipPath
       clipPathUnits="userSpaceOnUse"
       id="clipPath74"><path
         d="m 48.3867,728.206 117.7453,0 0,-114.704 -117.7453,0 0,114.704 z"
         id="path76"
         inkscape:connector-curvature="0" /></clipPath><clipPath
       clipPathUnits="userSpaceOnUse"
       id="clipPath78"><path
         d="m 80.566,681.254 c 35.956,34.724 73.163,54.524 83.106,44.229 9.942,-10.295 -11.147,-46.79 -47.103,-81.512 -35.956,-34.721 -52.749,-34.81 -62.692,-24.513 -9.942,10.294 -9.269,27.073 26.689,61.796"
         id="path80"
         inkscape:connector-curvature="0"
         style="clip-rule:evenodd" /></clipPath><linearGradient
       x1="0"
       y1="0"
       x2="1"
       y2="0"
       gradientUnits="userSpaceOnUse"
       gradientTransform="matrix(-54.539215,-61.603119,-61.603119,54.539215,131.47314,699.67383)"
       spreadMethod="pad"
       id="linearGradient82"><stop
         style="stop-opacity:1;stop-color:#58bfcf"
         offset="0"
         id="stop84" /><stop
         style="stop-opacity:1;stop-color:#008bca"
         offset="1"
         id="stop86" /></linearGradient><clipPath
       clipPathUnits="userSpaceOnUse"
       id="clipPath262"><path
         d="m 42.0723,429.672 131.3707,0 0,-98.301 -131.3707,0 0,98.301 z"
         id="path264"
         inkscape:connector-curvature="0" /></clipPath><clipPath
       clipPathUnits="userSpaceOnUse"
       id="clipPath278"><path
         d="m 33.4414,406.474 150.3856,0 0,-60.124 -150.3856,0 0,60.124 z"
         id="path280"
         inkscape:connector-curvature="0" /></clipPath><clipPath
       clipPathUnits="userSpaceOnUse"
       id="clipPath294"><path
         d="m 48.3867,431.329 117.7443,0 0,-114.702 -117.7443,0 0,114.702 z"
         id="path296"
         inkscape:connector-curvature="0" /></clipPath><clipPath
       clipPathUnits="userSpaceOnUse"
       id="clipPath310"><path
         d="m 42.0723,260.35 131.3707,0 0,-98.301 -131.3707,0 0,98.301 z"
         id="path312"
         inkscape:connector-curvature="0" /></clipPath><clipPath
       clipPathUnits="userSpaceOnUse"
       id="clipPath326"><path
         d="m 33.4414,237.151 150.3856,0 0,-60.124 -150.3856,0 0,60.124 z"
         id="path328"
         inkscape:connector-curvature="0" /></clipPath><clipPath
       clipPathUnits="userSpaceOnUse"
       id="clipPath342"><path
         d="m 48.3867,262.007 117.7443,0 0,-114.702 -117.7443,0 0,114.702 z"
         id="path344"
         inkscape:connector-curvature="0" /></clipPath></defs><sodipodi:namedview
     pagecolor="#ffffff"
     bordercolor="#666666"
     borderopacity="1"
     objecttolerance="10"
     gridtolerance="10"
     guidetolerance="10"
     inkscape:pageopacity="0"
     inkscape:pageshadow="2"
     inkscape:window-width="2400"
     inkscape:window-height="1457"
     id="namedview4"
     showgrid="false"
     inkscape:zoom="0.89702926"
     inkscape:cx="280.27687"
     inkscape:cy="-228.62188"
     inkscape:window-x="0"
     inkscape:window-y="25"
     inkscape:window-maximized="0"
     inkscape:current-layer="g16"
     fit-margin-top="12"
     fit-margin-left="12"
     fit-margin-right="12"
     fit-margin-bottom="12" /><g
     id="g10"
     inkscape:groupmode="layer"
     inkscape:label="logos iternova colores"
     transform="matrix(1.25,0,0,-1.25,-25.342763,977.01135)"><g
       id="g14"
       transform="translate(-6.242833,-56.185458)"><g
         id="g16"
         clip-path="url(#clipPath18)"><path
           inkscape:connector-curvature="0"
           id="path176"
           style="fill:#1a171b;fill-opacity:1;fill-rule:evenodd;stroke:none"
           d="m 249.6516,748.13504 c -4.877,-0.295 -10.163,-0.221 -15.852,0.223 -5.691,0.443 -8.536,4.064 -8.536,10.863 l 0,48.155 7.981,0 c 1.921,0 3.621,-0.738 5.1,-2.217 1.477,-1.478 2.217,-3.252 2.217,-5.32 l 0,-5.721 9.09,0 0,-7.36 c 0,-2.217 -0.74,-4.029 -2.217,-5.432 -1.478,-1.406 -3.252,-2.107 -5.321,-2.107 l -1.552,0 0,-14.367 c 0,-2.512 1.477,-3.768 4.434,-3.768 l 4.656,0 0,-12.949 z" /><g
           id="g178"
           transform="translate(309.7888,748.12144)"><path
             d="m 0,0 0,28.627 c 0,5.769 0.85,10.613 2.549,14.533 1.699,3.923 4.027,7.068 6.984,9.433 2.807,2.219 6.098,3.845 9.865,4.881 3.77,1.037 7.651,1.554 11.641,1.554 l 1.109,0 1.108,0 0,-15.757 -5.1,0 c -4.287,0 -7.465,-1.035 -9.533,-3.107 C 16.553,38.094 15.52,34.84 15.52,30.4 L 15.52,0 0,0 Z"
             style="fill:#1a171b;fill-opacity:1;fill-rule:evenodd;stroke:none"
             id="path180"
             inkscape:connector-curvature="0" /></g><g
           id="g182"
           transform="translate(546.4099,777.80104)"><path
             d="m 0,0 c -2.068,-1.033 -4.951,-1.994 -8.646,-2.881 l -5.1,-1.109 c -2.66,-0.739 -4.58,-1.699 -5.764,-2.883 -1.033,-1.625 -1.553,-3.25 -1.553,-4.877 0,-2.217 0.667,-3.99 1.997,-5.32 1.33,-1.184 3.252,-1.776 5.763,-1.776 4.141,0 7.393,1.184 9.756,3.549 C -1.182,-12.932 0,-9.68 0,-5.543 L 0,0 Z m 3.549,-27.268 c -3.106,-1.627 -6.393,-2.623 -9.867,-2.994 -3.473,-0.368 -6.541,-0.551 -9.202,-0.551 -5.32,0 -9.976,1.438 -13.966,4.321 -3.993,2.883 -5.987,7.648 -5.987,14.301 0,6.207 1.811,10.64 5.432,13.3 3.621,2.661 8.24,4.434 13.857,5.321 0.741,0 1.627,0.111 2.661,0.334 1.035,0.22 2.216,0.406 3.546,0.552 6.504,0.887 9.756,2.809 9.756,5.766 0,2.218 -1.144,3.659 -3.437,4.323 -2.289,0.666 -4.397,0.998 -6.319,0.998 -2.068,0 -3.916,-0.295 -5.543,-0.886 -1.625,-0.592 -2.806,-1.7 -3.546,-3.327 l -14.856,0 c 0.592,4.582 2.662,8.352 6.209,11.307 3.99,3.4 9.682,5.1 17.072,5.1 8.278,0 14.485,-1.403 18.623,-4.211 4.288,-2.957 6.43,-7.096 6.43,-12.417 l 0,-20.174 c 0,-5.912 -1.072,-10.531 -3.215,-13.858 -2.142,-3.326 -4.691,-5.726 -7.648,-7.205"
             style="fill:#444346;fill-opacity:1;fill-rule:evenodd;stroke:none"
             id="path184"
             inkscape:connector-curvature="0" /></g><g
           id="g186"
           transform="translate(491.0407,748.12144)"><path
             d="m 0,0 -15.742,0 -20.619,59.028 16.406,0 11.752,-41.497 10.42,36.171 c 1.181,3.551 3.547,5.326 7.096,5.326 l 11.527,0 L 0,0 Z"
             style="fill:#444346;fill-opacity:1;fill-rule:evenodd;stroke:none"
             id="path188"
             inkscape:connector-curvature="0" /></g><g
           id="g190"
           transform="translate(410.3396,753.44174)"><path
             d="m 0,0 c -3.104,2.66 -5.32,6.244 -6.65,10.754 -1.33,4.508 -1.996,9.201 -1.996,14.078 0,3.99 0.554,7.982 1.662,11.973 1.109,3.991 2.845,7.317 5.211,9.977 3.841,4.434 8.793,7.059 14.855,7.871 6.059,0.813 11.527,0.332 16.406,-1.441 5.616,-2.217 9.754,-6.061 12.416,-11.529 2.512,-4.878 3.768,-10.57 3.768,-17.074 0,-4.728 -0.518,-8.793 -1.551,-12.193 C 43.086,9.016 41.756,6.135 40.131,3.77 36.582,-1.107 32.074,-4.139 26.605,-5.32 21.729,-6.649 16.813,-6.761 11.861,-5.654 6.91,-4.545 2.955,-2.66 0,0 M 10.643,39.022 C 7.539,35.621 6.133,30.561 6.43,23.834 6.725,17.109 7.982,12.416 10.199,9.756 c 0.887,-1.184 2.44,-2.182 4.656,-2.994 2.217,-0.813 4.469,-0.887 6.762,-0.221 2.291,0.664 4.324,2.328 6.098,4.988 1.773,2.66 2.732,6.948 2.881,12.86 0,5.32 -0.85,9.312 -2.549,11.972 -1.701,2.661 -3.658,4.361 -5.875,5.099 -2.217,0.74 -4.436,0.777 -6.652,0.111 -2.217,-0.664 -3.844,-1.515 -4.877,-2.549"
             style="fill:#444346;fill-opacity:1;fill-rule:evenodd;stroke:none"
             id="path192"
             inkscape:connector-curvature="0" /></g><g
           id="g194"
           transform="translate(397.1345,748.12144)"><path
             d="m 0,0 -7.76,0 c -2.219,0 -4.027,0.701 -5.433,2.105 -1.403,1.405 -2.106,3.215 -2.106,5.432 l 0,30.152 c 0,3.549 -1.07,6.136 -3.215,7.761 -2.142,1.627 -4.545,2.44 -7.205,2.44 -2.662,0 -5.025,-0.813 -7.095,-2.44 -2.069,-1.625 -3.104,-4.212 -3.104,-7.761 l 0,-37.689 -15.52,0 0,34.57 c 0,10.048 2.625,16.769 7.872,20.167 5.246,3.399 11.048,5.244 17.404,5.539 6.504,0 12.49,-1.697 17.957,-5.095 C -2.734,51.782 0,44.913 0,34.57 L 0,0 Z"
             style="fill:#444346;fill-opacity:1;fill-rule:evenodd;stroke:none"
             id="path196"
             inkscape:connector-curvature="0" /></g><g
           id="g198"
           transform="translate(219.7663,793.56574)"><path
             d="m 0,0 0,-45.444 -15.52,0 0,45.444"
             style="fill:#1a171b;fill-opacity:1;fill-rule:evenodd;stroke:none"
             id="path200"
             inkscape:connector-curvature="0" /></g><g
           id="g202"
           transform="translate(204.2468,807.09694)"><path
             d="m 0,0 7.981,0 c 2.071,0 3.844,-0.74 5.321,-2.217 1.479,-1.478 2.217,-3.252 2.217,-5.322 l 0,-1.458 L 0,-8.997 0,0 Z"
             style="fill:#1a171b;fill-opacity:1;fill-rule:evenodd;stroke:none"
             id="path204"
             inkscape:connector-curvature="0" /></g><g
           id="g206"
           transform="translate(268.4714,782.13214)"><path
             d="M 0,0 21.629,0 C 21.345,3.818 20.357,6.644 18.66,8.483 16.821,10.461 14.208,11.45 10.814,11.45 7.704,11.45 5.159,10.461 3.181,8.483 1.202,6.502 0.14,3.676 0,0 m 25.445,-16.564 10.603,0 c -1.557,-5.938 -4.525,-10.461 -8.907,-13.572 -4.382,-3.249 -9.896,-4.874 -16.538,-4.874 -8.058,0 -14.349,2.613 -18.872,7.843 -4.524,5.089 -6.785,12.369 -6.785,21.84 0,9.046 2.191,16.114 6.573,21.204 4.523,5.23 10.814,7.844 18.872,7.844 8.481,0 15.054,-2.544 19.719,-7.632 4.524,-5.231 6.786,-12.51 6.786,-21.838 l 0,-1.485 0,-0.849 c 0,-0.706 -0.073,-1.201 -0.211,-1.485 L 0,-9.568 c 0.14,-4.382 1.202,-7.632 3.181,-9.754 1.836,-2.26 4.593,-3.392 8.27,-3.392 2.402,0 4.453,0.495 6.149,1.485 0.424,0.141 0.812,0.388 1.165,0.742 0.353,0.354 0.743,0.741 1.168,1.165 0.14,0.426 0.671,0.99 1.589,1.698 0.919,0.705 2.227,1.06 3.923,1.06"
             style="fill:#1a171b;fill-opacity:1;fill-rule:evenodd;stroke:none"
             id="path208"
             inkscape:connector-curvature="0" /></g><g
           id="g258"
           transform="translate(2.6754981,396.86554)"><g
             id="g260" /><g
             id="g266"><g
               clip-path="url(#clipPath262)"
               id="g268"
               style="opacity:0.88999897"><g
                 transform="translate(111.5015,407.8506)"
                 id="g270"><path
                   d="m 0,0 c 41.439,-27.951 68.543,-60.227 60.541,-72.094 -8.004,-11.865 -48.084,1.174 -89.523,29.125 -41.44,27.951 -45.017,44.36 -37.013,56.225 C -57.993,25.122 -41.439,27.952 0,0"
                   style="fill:#3d3d40;fill-opacity:1;fill-rule:evenodd;stroke:none"
                   id="path272"
                   inkscape:connector-curvature="0" /></g></g></g></g><g
           id="g274"
           transform="translate(2.6754981,396.86554)"><g
             id="g276" /><g
             id="g282"><g
               clip-path="url(#clipPath278)"
               id="g284"><g
                 transform="translate(89.8999,401.1631)"
                 id="g286"><path
                   d="M 0,0 C 49.067,9.537 91.057,5.881 93.787,-8.17 96.518,-22.219 58.957,-41.34 9.89,-50.877 -39.176,-60.416 -53.308,-51.342 -56.039,-37.293 -58.77,-23.242 -49.066,-9.539 0,0"
                   style="fill:#707070;fill-opacity:1;fill-rule:evenodd;stroke:none"
                   id="path288"
                   inkscape:connector-curvature="0" /></g></g></g></g><g
           id="g290"
           transform="translate(2.6754981,396.86554)"><g
             id="g292" /><g
             id="g298"><g
               clip-path="url(#clipPath294)"
               id="g300"
               style="opacity:0.77000397"><g
                 transform="translate(80.5659,384.3779)"
                 id="g302"><path
                   d="M 0,0 C 35.956,34.725 73.163,54.524 83.105,44.228 93.048,33.934 71.959,-2.561 36.003,-37.283 0.047,-72.004 -16.746,-72.092 -26.688,-61.797 -36.631,-51.502 -35.958,-34.723 0,0"
                   style="fill:#a9aaaa;fill-opacity:1;fill-rule:evenodd;stroke:none"
                   id="path304"
                   inkscape:connector-curvature="0" /></g></g></g></g></g></g></g></svg>