<?xml version="1.0" encoding="UTF-8" standalone="no"?>
<!-- Created with Inkscape (http://www.inkscape.org/) -->

<svg
   xmlns:dc="http://purl.org/dc/elements/1.1/"
   xmlns:cc="http://creativecommons.org/ns#"
   xmlns:rdf="http://www.w3.org/1999/02/22-rdf-syntax-ns#"
   xmlns:svg="http://www.w3.org/2000/svg"
   xmlns="http://www.w3.org/2000/svg"
   xmlns:sodipodi="http://sodipodi.sourceforge.net/DTD/sodipodi-0.dtd"
   xmlns:inkscape="http://www.inkscape.org/namespaces/inkscape"
   id="svg2"
   version="1.1"
   inkscape:version="0.91 r13725"
   width="256"
   height="256"
   viewBox="0 0 256 256"
   sodipodi:docname="logo-atletismo.svg">
  <metadata
     id="metadata8">
    <rdf:RDF>
      <cc:Work
         rdf:about="">
        <dc:format>image/svg+xml</dc:format>
        <dc:type
           rdf:resource="http://purl.org/dc/dcmitype/StillImage" />
        <dc:title></dc:title>
      </cc:Work>
    </rdf:RDF>
  </metadata>
  <defs
     id="defs6" />
  <sodipodi:namedview
     pagecolor="#ffffff"
     bordercolor="#666666"
     borderopacity="1"
     objecttolerance="10"
     gridtolerance="10"
     guidetolerance="10"
     inkscape:pageopacity="0"
     inkscape:pageshadow="2"
     inkscape:window-width="2459"
     inkscape:window-height="1614"
     id="namedview4"
     showgrid="false"
     inkscape:zoom="7.375"
     inkscape:cx="94.620735"
     inkscape:cy="532.83276"
     inkscape:window-x="0"
     inkscape:window-y="25"
     inkscape:window-maximized="0"
     inkscape:current-layer="svg2" />
  <path
     style="fill:#000000"
     d="m 1.4315189,-189.72704 c -1.49449,-1.55992 -2.7172604,-3.12131 -2.7172604,-3.46977 0,-0.34846 -1.33793,-2.09841 -2.97317,-3.88877 -1.63525,-1.79037 -2.76415,-3.46424 -2.50868,-3.71971 0.25547,-0.25548 -0.0188,-1.04681 -0.60944,-1.75852 -1.5198,-1.83125 -0.1335,-5.39 2.09966,-5.39 1.03048,0 2.15171,-0.45 2.49163,-1 0.33992,-0.55 1.51029,-1 2.60083,-1 1.0905404,0 2.9488304,-0.9 4.1295504,-2 1.18071,-1.1 2.96189,-2 3.95818,-2 0.99629,0 1.81144,-0.49941 1.81144,-1.10979 0,-0.61039 2.2500001,-3.57165 5.0000001,-6.58059 2.75,-3.00894 5,-5.80167 5,-6.20607 0,-1.04838 7.45802,-5.10355 9.38615,-5.10355 1.04437,0 1.61385,-0.86136 1.61385,-2.44098 0,-1.34254 0.45,-2.7191 1,-3.05902 0.55,-0.33992 1,-2.34333 1,-4.45203 0,-2.57361 0.51999,-4.03353 1.58178,-4.44098 3.12296,-1.19839 7.14101,-0.57078 8.91822,1.39301 0.99548,1.1 2.41523,2 3.15498,2 0.73976,0 1.34502,0.64844 1.34502,1.44098 0,3.17898 2.14568,3.04944 9.23643,-0.55765 0.95503,-0.48583 2.57279,-0.88333 3.59501,-0.88333 1.02222,0 2.67307,-0.9 3.66856,-2 0.99548,-1.1 2.34548,-2 3,-2 0.65451,0 2.00451,-0.9 3,-2 0.99548,-1.1 2.34952,-2 3.00896,-2 0.65945,0 2.32384,-1.04247 3.69865,-2.3166 1.37481,-1.27413 4.09156,-3.07202 6.03723,-3.99528 1.94566,-0.92328 3.7974,-2.35581 4.11498,-3.1834 0.46097,-1.20127 -0.32373,-1.50471 -3.8912,-1.50471 -4.07105,0 -4.46862,-0.21717 -4.46862,-2.44098 0,-1.34254 -0.3842,-2.67843 -0.85377,-2.96865 -0.98092,-0.60624 -3.14623,3.66984 -3.14623,6.2132 0,1.78737 -7.27943,4.7598 -9.02088,3.68353 -0.4975,-0.30748 -0.0213,-2.13154 1.05816,-4.05349 1.0795,-1.92194 1.96272,-4.16186 1.96272,-4.9776 0,-0.81573 0.5625,-2.39077 1.25,-3.50009 1.85972,-3.00076 -0.58299,-4.16133 -7.30567,-3.47104 -3.05561,0.31375 -5.86653,0.25959 -6.24649,-0.12037 -0.37995,-0.37995 -6.31741,-0.5853 -13.19434,-0.45631 -9.25111,0.17351 -12.5035,-0.0805 -12.5035,-0.9766 0,-2.50107 3.57295,-3.86834 10.19098,-3.8998 3.68004,-0.0175 6.9691,-0.4818 7.30902,-1.0318 0.75401,-1.22001 5.5,-1.34142 5.5,-0.14069 0,0.47262 2.90957,1.81445 6.46572,2.98185 7.97116,2.61675 12.53428,2.08299 12.53428,-1.46616 0,-1.33811 0.59494,-2.375 1.36272,-2.375 0.7495,0 2.8027,-2.925 4.56267,-6.5 1.75996,-3.575 3.62174,-6.5 4.13727,-6.5 0.51554,0 0.93734,-0.51902 0.93734,-1.15338 0,-0.63435 2.25,-3.53242 5,-6.44014 2.750004,-2.90772 5.000004,-5.73338 5.000004,-6.27924 0,-0.54586 0.9,-1.27812 2,-1.62724 1.1,-0.34913 2,-1.24121 2,-1.9824 0,-0.7412 2.08836,-3.18587 4.640787,-5.43262 3.71791,-3.27263 5.40825,-4.08499 8.5,-4.08499 2.12257,0 3.85921,-0.45 3.85921,-1 0,-1.15853 -3.64016,-4.99626 -4.75,-5.0078 -1.01467,-0.0105 -3.25,-4.95688 -3.25,-7.19156 0,-0.99035 0.45,-1.80064 1,-1.80064 0.55,0 1,-0.58917 1,-1.30927 0,-2.26014 10.61806,-10.69073 13.46463,-10.69073 1.42898,0 2.85716,-0.675 3.17374,-1.5 0.31659,-0.825 1.24459,-1.5 2.06224,-1.5 0.81765,0 1.72198,-0.9 2.00964,-2 0.28766,-1.1 1.28053,-2 2.20638,-2 0.92585,0 2.14628,-0.4629 2.71205,-1.02868 0.70491,-0.70491 1.84043,-0.39016 3.60773,1 1.41848,1.11578 3.40807,2.03219 4.42132,2.03648 2.33358,0.01 4.34227,4.26181 4.34227,9.19157 0,2.09035 0.45,3.80063 1,3.80063 0.55,0 1,0.9 1,2 0,1.1 0.60526,2 1.34501,2 2.87225,0 4.65499,3.55774 4.65499,9.28979 0,7.5095 -2.19581,9.71021 -9.68856,9.71021 -4.87716,0 -6.69866,1.02462 -4.37476,2.46087 1.37459,0.84955 4.06332,6.56256 4.06332,8.63376 0,0.98304 0.45,2.06546 1,2.40538 0.55,0.33992 1,1.68992 1,3 0,1.31008 0.45,2.66008 1,3 0.55,0.33992 1,1.71648 1,3.05902 0,1.34254 0.34384,2.44098 0.7641,2.44098 0.74523,0 4.2359,7.2444 4.2359,8.79102 0,0.42752 2.37665,3.12443 5.28145,5.99314 l 5.28144,5.21584 18.55189,0 c 10.20354,0 18.86029,-0.3084 19.23722,-0.68534 1.26281,-1.2628 7.52768,-3.04874 9.85027,-2.80804 1.26375,0.13097 2.92092,0.29556 3.68259,0.36576 0.82934,0.0764 0.2538,1.01731 -1.4348,2.34557 -2.51435,1.97778 -4.23436,2.2592 -15.88486,2.59897 -7.18586,0.20957 -13.4927,0.78649 -14.0152,1.28205 -0.5225,0.49557 -3.53344,0.90103 -6.69098,0.90103 -3.15754,0 -6.0191,0.45 -6.35902,1 -0.36373,0.58854 -6.29876,1 -14.42416,1 -12.46909,0 -14.06221,-0.20144 -16.45051,-2.08007 -1.45441,-1.14405 -2.38854,-2.49405 -2.07584,-3 0.3127,-0.50596 3.69199,-0.91993 7.50953,-0.91993 l 6.94098,0 0,-3.34501 c 0,-2.07502 -0.75933,-4.0322 -2,-5.15499 -1.1,-0.99549 -2,-2.41142 -2,-3.14651 0,-0.7351 -0.9,-1.8986 -2,-2.58556 -1.1,-0.68696 -2,-2.0287 -2,-2.98164 0,-0.95293 -1.14477,-3.65719 -2.54393,-6.00945 -1.39916,-2.35226 -2.7935,-5.03321 -3.09854,-5.95767 -1.10229,-3.34062 -5.2693,-3.34839 -5.44811,-0.0101 -0.0498,0.93004 -1.38592,3.94098 -2.96912,6.69098 -1.5832,2.75 -3.39086,6.125 -4.01702,7.5 -0.62617,1.375 -1.54006,3.28139 -2.03088,4.23643 -0.49082,0.95504 -0.8924,2.61598 -0.8924,3.69098 0,1.07501 -0.40992,2.2079 -0.91093,2.51754 -1.55509,0.9611 -0.63477,3.18159 2.40092,5.79278 l 2.91189,2.50471 -4.29406,5.12878 c -4.06795,4.85867 -4.54598,5.12873 -9.07849,5.12873 -3.03289,0 -5.24019,0.54914 -6.02933,1.5 -1.09533,1.31979 0.26443,1.49999 11.31854,1.49999 7.29693,0 12.8225,0.41919 13.18146,1 0.33992,0.55 2.81492,1 5.5,1 2.68508,0 5.12102,0.3868 5.4132,0.85955 0.29217,0.47275 3.8937,1.16425 8.00339,1.53666 5.55544,0.50342 8.36898,0.3024 10.96831,-0.78367 2.96806,-1.24014 3.66919,-1.25229 4.64172,-0.0805 0.63006,0.75918 0.84308,1.86974 0.47338,2.46793 -0.3697,0.59819 -0.11251,1.76197 0.57153,2.58619 0.94203,1.13508 0.96291,1.77937 0.0861,2.65619 -2.65437,2.65437 -0.64405,7.75762 3.05595,7.75762 0.99746,0 2.59496,0.3975 3.55,0.88333 3.28363,1.67039 6.7461,2.9519 11.48643,4.25127 2.6125,0.71612 4.75,1.65379 4.75,2.08372 0,0.42992 0.88631,0.78168 1.96958,0.78168 1.08327,0 3.61325,0.92319 5.62216,2.05153 2.43649,1.36849 5.01623,1.95114 7.74834,1.75 3.68465,-0.27126 4.19088,-0.63504 5.04334,-3.6242 0.72629,-2.54669 1.96885,-3.80273 5.32054,-5.37821 4.35958,-2.04924 6.72561,-1.82869 4.47937,0.41755 -0.65084,0.65086 -1.18334,2.13417 -1.18334,3.29627 0,1.1621 -1.35,3.40629 -3,4.98709 -1.65,1.5808 -3,3.41251 -3,4.07046 0,0.65795 -0.9,1.43163 -2,1.71929 -1.11205,0.29081 -2,1.36401 -2,2.41727 0,1.04184 -0.5625,3.10545 -1.25,4.58581 -1.91418,4.12172 -7.92265,3.64946 -13.88211,-1.09113 -2.21395,-1.76114 -15.35636,-2.83839 -16.28558,-1.33489 -0.38519,0.62326 -1.77223,1.13319 -3.08231,1.13319 -1.31008,0 -2.66008,0.45 -3,1 -0.90596,1.46587 -3.59974,1.21971 -5.50318,-0.50288 -0.91337,-0.82659 -4.26079,-1.98354 -7.43871,-2.57101 -5.33565,-0.98635 -5.95353,-0.90326 -8.07021,1.08526 -1.35913,1.27684 -3.24788,2.01809 -4.64004,1.82101 -2.00625,-0.28402 -2.39424,-0.98427 -2.66661,-4.81276 -0.39907,-5.60926 -1.55328,-7.01962 -5.74468,-7.01962 -1.82519,0 -3.59665,-0.45 -3.93657,-1 -0.33992,-0.55 -1.91492,-1 -3.5,-1 -1.58508,0 -3.13595,-0.41096 -3.44638,-0.91324 -0.31043,-0.50228 -4.44877,-0.92407 -9.19631,-0.9373 -4.74755,-0.0132 -9.11012,-0.50227 -9.69461,-1.08676 -0.65097,-0.65097 -6.59126,-1.0627 -15.332277,-1.0627 -12.415984,0 -14.732144,0.2598 -17.830424,2 -1.95846,1.1 -4.25217,2 -5.09714,2 -0.84497,0 -3.01126,1.125 -4.81398,2.5 -1.80271,1.375 -3.95355,2.5 -4.77964,2.5 -0.82608,0 -2.9211,0.70796 -4.65561,1.57324 -2.7027,1.34829 -3.15363,2.11257 -3.15363,5.34501 0,2.48988 -0.67336,4.38115 -1.98124,5.56477 -2.30154,2.08286 -3.14671,1.62577 -9.09979,-4.92144 l -3.58102,-3.93841 -3.07335,2.18841 c -1.69034,1.20363 -3.56638,2.18842 -4.16897,2.18842 -0.6026,0 -1.09563,0.38363 -1.09563,0.85251 0,0.6978 -6.69865,4.28913 -19.23643,10.31318 -0.95504,0.45887 -2.4175401,0.83431 -3.2500001,0.83431 -1.90414,0 -1.97274,0.60029 -1.25423,10.97499 0.31418,4.5365 -1.91314,5.03958 -5.54208,1.25178 z M 99.464263,-285.2105 c 0.687497,-0.5435 1.249997,-1.76395 1.249997,-2.71211 0,-2.46892 2.9706,-8.08268 4.60995,-8.71175 0.76453,-0.29338 1.39005,-1.38527 1.39005,-2.42643 0,-1.04115 0.3375,-1.89652 0.75,-1.90081 1.22222,-0.0127 3.25,-5.16575 3.25,-8.25896 0,-2.50932 -0.2814,-2.78286 -2.25,-2.18712 -2.57884,0.78042 -16.740347,14.3798 -16.746147,16.08144 -0.002,0.62015 -0.68715,1.69464 -1.5223,2.38776 -0.835154,0.69311 -2.260824,2.88571 -3.168164,4.87244 -0.90733,1.98673 -1.83565,3.96602 -2.06293,4.39843 -0.58048,1.1044 12.975544,-0.33809 14.499544,-1.54289 z m -109.1105245,53.56284 c -1.1273705,-1.12737 -0.7425405,-1.73127 5.14524,-8.07423 3.38913,-3.65113 6.6159004,-6.23192 7.7917904,-6.23192 1.9761,0 10.3832801,-7.66175 10.4658201,-9.53785 0.0463,-1.05207 6.5272,-5.46214 8.02701,-5.46214 0.51186,0 0.93066,-0.37777 0.93066,-0.83948 0,-0.46172 1.125,-1.35207 2.5,-1.97857 1.4665,-0.66818 2.5,-1.97473 2.5,-3.16051 0,-1.88537 0.65632,-2.02637 9.75,-2.09461 19.54304,-0.14665 32.350697,-0.51136 33.829537,0.96748 1.24462,1.24462 -1.518725,2.459 -3.102695,2.96239 -1.00337,0.31887 -8.706872,1.17139 -10.821342,2.22594 -4.7845,2.38616 -5.24989,2.38157 -8.38263,-0.0826 -2.75444,-2.16664 -12.60962,-2.88219 -13.77287,-1 -0.33992,0.55 -1.60398,1.00988 -2.80902,1.02196 -5.61304,0.0563 -18.69098,9.38462 -18.69098,13.33208 0,1.68787 -4.6494801,5.04585 -9.0000001,6.50005 -3.71788,1.24273 -12.0000004,8.09952 -12.0000004,9.93483 0,1.38471 -1.51759,2.36014 -2.36052,1.51722 z m 83.0554355,-30.16207 c 0,-2.79295 0.238471,-2.81033 4.698095,0.43772 2.166517,1.57793 0.72095,3.41821 -0.89301,3.41821 -0.93333,0 -3.805085,-2.30037 -3.805085,-3.85593 z"
     id="path3338-3"
     inkscape:connector-curvature="0"
     sodipodi:nodetypes="sssccssssssssssssssssssssssssssscsccsssssssssssssssssssssscsssssssssscssssssssssssssscscscssssssssscssssssscsssssscsssssscsscsssssssssssscsssssssssssssssssssssssssssssscsssssssssssssscsssscsscssssssssssssssccssss" />
</svg>
